<svg xmlns="http://www.w3.org/2000/svg" version="1.1" xmlns:xlink="http://www.w3.org/1999/xlink" xmlns:svgjs="http://svgjs.dev/svgjs" width="1000" height="1000" viewBox="0 0 1000 1000"><rect width="1000" height="1000" fill="#ffffff"></rect><g transform="matrix(0.7,0,0,0.7,149.57575757575756,282.1265587044535)"><svg viewBox="0 0 396 247" data-background-color="#ee3e38" preserveAspectRatio="xMidYMid meet" height="623" width="1000" xmlns="http://www.w3.org/2000/svg" xmlns:xlink="http://www.w3.org/1999/xlink"><g id="tight-bounds" transform="matrix(1,0,0,1,0.2400000000000091,-0.09999999999999432)"><svg viewBox="0 0 395.52 247.2" height="247.2" width="395.52"><g><svg></svg></g><g><svg viewBox="0 0 395.52 247.2" height="247.2" width="395.52"><g transform="matrix(1,0,0,1,75.54432,77.53458752779247)"><svg viewBox="0 0 244.43135999999998 92.13082494441504" height="92.13082494441504" width="244.43135999999998"><g><svg viewBox="0 0 244.43135999999998 92.13082494441504" height="92.13082494441504" width="244.43135999999998"><g><svg viewBox="0 0 244.43135999999998 92.13082494441504" height="92.13082494441504" width="244.43135999999998"><g><svg viewBox="0 0 244.43135999999998 92.13082494441504" height="92.13082494441504" width="244.43135999999998"><g id="textblocktransform"><svg viewBox="0 0 244.43135999999998 92.13082494441504" height="92.13082494441504" width="244.43135999999998" id="textblock"><g><svg viewBox="0 0 244.43135999999998 92.13082494441504" height="92.13082494441504" width="244.43135999999998"><g transform="matrix(1,0,0,1,0,0)"><svg width="244.43135999999998" viewBox="2.950000047683716 -35.099998474121094 94.45000457763672 35.599998474121094" height="92.13082494441504" data-palette-color="#ffffff"><path d="M25-3.85L25.15-0.55Q20 0.5 15.9 0.5 11.8 0.5 9.28-0.63 6.75-1.75 5.38-4.13 4-6.5 3.48-9.58 2.95-12.65 2.95-17.25 2.95-21.85 3.48-24.98 4-28.1 5.38-30.5 6.75-32.9 9.25-34 11.75-35.1 15.75-35.1 19.75-35.1 25.15-34L25.15-34 25-30.75Q19.95-31.65 16-31.65L16-31.65Q10.5-31.65 8.72-28.38 6.95-25.1 6.95-17.2L6.95-17.2Q6.95-13.25 7.28-10.85 7.6-8.45 8.55-6.53 9.5-4.6 11.33-3.78 13.15-2.95 16.68-2.95 20.2-2.95 25-3.85L25-3.85ZM33.45-17.15Q33.45-9.55 35.45-6.23 37.45-2.9 43.17-2.9 48.9-2.9 50.87-6.15 52.85-9.4 52.85-17.05 52.85-24.7 50.8-28.2 48.75-31.7 43.12-31.7 37.5-31.7 35.47-28.23 33.45-24.75 33.45-17.15ZM56.85-17.05Q56.85-7.8 53.9-3.65 50.95 0.5 43.17 0.5 35.4 0.5 32.45-3.75 29.5-8 29.5-17.13 29.5-26.25 32.5-30.68 35.5-35.1 43.15-35.1 50.8-35.1 53.82-30.7 56.85-26.3 56.85-17.05ZM67.75 0L63.9 0 63.9-34.6 70.84-34.6 80.65-5.35 90.45-34.6 97.4-34.6 97.4 0 93.55 0 93.55-30.5 92.84-30.5 82.8-1.25 78.5-1.25 68.45-30.5 67.75-30.5 67.75 0Z" opacity="1" transform="matrix(1,0,0,1,0,0)" fill="#000000" class="undefined-text-0" data-fill-palette-color="primary" id="text-0"></path></svg></g></svg></g></svg></g></svg></g></svg></g></svg></g></svg></g><path d="M174.428 71.535L174.428 18.607 384.414 18.607 384.414 228.593 174.428 228.593 174.428 175.665 182.736 175.665 182.736 220.284 376.105 220.284 376.105 26.916 182.736 26.916 182.736 71.535Z" fill="#000000" stroke="transparent" data-fill-palette-color="primary"></path></svg></g><defs></defs></svg><rect width="395.52" height="247.2" fill="none" stroke="none" visibility="hidden"></rect></g></svg></g></svg>